<svg xmlns="http://www.w3.org/2000/svg" viewBox="0 0 520 520" fill="none">
  <path d="M82 356C154 232 242 164 408 132" stroke="#1f6f68" stroke-width="2" stroke-linecap="round" opacity=".42"/>
  <path d="M108 166C188 262 274 315 421 336" stroke="#9b4d44" stroke-width="2" stroke-linecap="round" opacity=".34"/>
  <path d="M125 394C184 344 226 278 252 196C267 149 303 111 359 82" stroke="#b88a36" stroke-width="2" stroke-linecap="round" opacity=".36"/>
  <circle cx="82" cy="356" r="8" fill="#1f6f68" opacity=".55"/>
  <circle cx="108" cy="166" r="6" fill="#9b4d44" opacity=".55"/>
  <circle cx="252" cy="196" r="7" fill="#b88a36" opacity=".5"/>
  <circle cx="408" cy="132" r="9" fill="#1f6f68" opacity=".34"/>
  <circle cx="421" cy="336" r="7" fill="#9b4d44" opacity=".34"/>
  <path d="M70 420H450M70 420V78" stroke="#202321" stroke-width="1.5" stroke-linecap="round" opacity=".16"/>
  <path d="M146 420V402M222 420V402M298 420V402M374 420V402M70 344H88M70 268H88M70 192H88M70 116H88" stroke="#202321" stroke-width="1.5" stroke-linecap="round" opacity=".16"/>
</svg>
